<svg width="50" height="51" viewBox="0 0 50 51" fill="none" xmlns="http://www.w3.org/2000/svg">
<g clip-path="url(#clip0_34717_6677)">
<path d="M49.7139 9.67148L40.8271 0.786035C40.644 0.60293 40.3957 0.5 40.1367 0.5H11.1328C9.51738 0.5 8.20312 1.81426 8.20312 3.42969V5.29141C3.40576 7.17324 0 11.8491 0 17.3058C0 17.845 0.437305 18.2823 0.976562 18.2823H12.8995C13.4388 18.2823 13.8761 17.845 13.8761 17.3058V5.38281C13.8761 4.84355 13.4388 4.40625 12.8995 4.40625C11.9583 4.40625 11.0407 4.5085 10.1562 4.70088V3.42969C10.1562 2.89121 10.5943 2.45312 11.1328 2.45312H39.1602V8.41016C39.1602 10.0256 40.4744 11.3398 42.0898 11.3398H48.0469V47.5703C48.0469 48.1088 47.6088 48.5469 47.0703 48.5469H11.1328C10.5943 48.5469 10.1562 48.1088 10.1562 47.5703V39.2044C10.1562 38.6651 9.71895 38.2278 9.17969 38.2278C8.64043 38.2278 8.20312 38.6651 8.20312 39.2044V47.5703C8.20312 49.1857 9.51738 50.5 11.1328 50.5H47.0703C48.6857 50.5 50 49.1857 50 47.5703V10.362C50 10.103 49.8971 9.85459 49.7139 9.67148ZM11.9229 6.40264V16.3292H1.99629C2.46318 11.0706 6.66436 6.86953 11.9229 6.40264ZM42.0898 9.38672C41.5514 9.38672 41.1133 8.94863 41.1133 8.41016V3.83398L46.6668 9.38672H42.0898Z" fill="white"/>
<path d="M9.87002 34.9658C9.68848 34.7841 9.43652 34.6797 9.17969 34.6797C8.92285 34.6797 8.6709 34.7841 8.48926 34.9658C8.30762 35.1475 8.20312 35.3994 8.20312 35.6562C8.20312 35.9131 8.30752 36.165 8.48926 36.3466C8.6709 36.5283 8.92285 36.6328 9.17969 36.6328C9.43652 36.6328 9.68848 36.5283 9.87002 36.3466C10.0518 36.165 10.1562 35.9131 10.1562 35.6562C10.1562 35.3994 10.0518 35.1475 9.87002 34.9658Z" fill="white"/>
<path d="M16.3979 7.9043C15.8587 7.9043 15.4214 8.3416 15.4214 8.88086V19.8271H4.4751C3.93584 19.8271 3.49854 20.2645 3.49854 20.8037C3.49854 27.9165 9.28516 33.7032 16.3979 33.7032C23.5107 33.7032 29.2975 27.9165 29.2975 20.8037C29.2975 13.6909 23.5107 7.9043 16.3979 7.9043ZM17.3745 9.90068C19.6606 10.1036 21.7467 11.0128 23.4132 12.4075L17.3745 18.4461V9.90068ZM16.3979 31.7501C10.6912 31.7501 5.99033 27.3605 5.49492 21.7803H16.3979C16.6675 21.7803 16.9114 21.6711 17.0882 21.4945C17.0883 21.4944 17.0884 21.4944 17.0886 21.4942L24.7945 13.7884C26.3854 15.6895 27.3443 18.1367 27.3443 20.8037C27.3443 26.8396 22.4338 31.7501 16.3979 31.7501Z" fill="white"/>
<path d="M42.7811 31.3213C41.1656 31.3213 39.8514 32.6355 39.8514 34.251C39.8514 34.6559 39.934 35.0417 40.0831 35.3928L34.4568 41.019C34.0702 40.8307 33.6362 40.7247 33.178 40.7247C32.7307 40.7247 32.3066 40.8259 31.9271 41.0059L28.1909 37.2697C28.3204 36.9393 28.3923 36.58 28.3923 36.204C28.3923 34.5886 27.078 33.2743 25.4626 33.2743C23.8472 33.2743 22.5329 34.5886 22.5329 36.204C22.5329 36.6417 22.6301 37.0569 22.8029 37.4303L19.2194 41.0138C18.8377 40.8312 18.4105 40.7287 17.96 40.7287C16.3445 40.7287 15.0303 42.043 15.0303 43.6584C15.0303 45.2738 16.3445 46.5881 17.96 46.5881C19.5754 46.5881 20.8896 45.2738 20.8896 43.6584C20.8896 43.2056 20.7863 42.7765 20.6021 42.3934L24.1656 38.8299C24.5569 39.024 24.9972 39.1337 25.4628 39.1337C25.9887 39.1337 26.4821 38.9937 26.9092 38.7502L30.5399 42.381C30.3532 42.7662 30.2483 43.1982 30.2483 43.6544C30.2483 45.2698 31.5626 46.5841 33.178 46.5841C34.7935 46.5841 36.1077 45.2698 36.1077 43.6544C36.1077 43.2093 36.0075 42.7872 35.8291 42.4091L41.4028 36.8354C41.8139 37.0555 42.2831 37.1807 42.7811 37.1807C44.3965 37.1807 45.7107 35.8664 45.7107 34.251C45.7107 32.6355 44.3965 31.3213 42.7811 31.3213ZM17.9599 44.6351C17.4214 44.6351 16.9833 44.197 16.9833 43.6585C16.9833 43.12 17.4214 42.6819 17.9599 42.6819C18.2221 42.6819 18.4599 42.7863 18.6354 42.9551C18.6394 42.9592 18.6428 42.9636 18.6468 42.9676C18.6515 42.9723 18.6565 42.9762 18.6613 42.9807C18.8313 43.1564 18.9364 43.3953 18.9364 43.6585C18.9364 44.1969 18.4983 44.6351 17.9599 44.6351ZM25.4626 37.1806C24.9241 37.1806 24.486 36.7425 24.486 36.204C24.486 35.6655 24.9241 35.2274 25.4626 35.2274C26.0011 35.2274 26.4392 35.6655 26.4392 36.204C26.4392 36.7425 26.0011 37.1806 25.4626 37.1806ZM33.1778 44.631C32.6394 44.631 32.2013 44.1929 32.2013 43.6544C32.2013 43.1159 32.6394 42.6778 33.1778 42.6778C33.7163 42.6778 34.1544 43.1159 34.1544 43.6544C34.1544 44.1929 33.7163 44.631 33.1778 44.631ZM42.7809 35.2274C42.2424 35.2274 41.8043 34.7894 41.8043 34.2509C41.8043 33.7124 42.2425 33.2743 42.7809 33.2743C43.3193 33.2743 43.7574 33.7124 43.7574 34.2509C43.7574 34.7894 43.3193 35.2274 42.7809 35.2274Z" fill="white"/>
<path d="M37.8998 23.4492H32.7456C32.2063 23.4492 31.769 23.8865 31.769 24.4258C31.769 24.965 32.2062 25.4023 32.7456 25.4023H37.8998C38.4391 25.4023 38.8764 24.965 38.8764 24.4258C38.8764 23.8865 38.4391 23.4492 37.8998 23.4492Z" fill="white"/>
<path d="M43.037 23.7354C42.8555 23.5537 42.6035 23.4492 42.3467 23.4492C42.0898 23.4492 41.8379 23.5536 41.6562 23.7354C41.4746 23.917 41.3701 24.1689 41.3701 24.4258C41.3701 24.6826 41.4745 24.9346 41.6562 25.1161C41.8379 25.2978 42.0889 25.4023 42.3467 25.4023C42.6035 25.4023 42.8555 25.2979 43.037 25.1161C43.2187 24.9346 43.3232 24.6826 43.3232 24.4258C43.3232 24.1689 43.2188 23.917 43.037 23.7354Z" fill="white"/>
<path d="M44.6747 14.0742H32.7456C32.2063 14.0742 31.769 14.5115 31.769 15.0508C31.769 15.59 32.2062 16.0273 32.7456 16.0273H44.6747C45.214 16.0273 45.6513 15.59 45.6513 15.0508C45.6513 14.5115 45.214 14.0742 44.6747 14.0742Z" fill="white"/>
<path d="M44.6747 18.7617H32.7456C32.2063 18.7617 31.769 19.199 31.769 19.7383C31.769 20.2775 32.2062 20.7148 32.7456 20.7148H44.6747C45.214 20.7148 45.6513 20.2775 45.6513 19.7383C45.6513 19.199 45.214 18.7617 44.6747 18.7617Z" fill="white"/>
</g>
<defs>
<clipPath id="clip0_34717_6677">
<rect width="50" height="50" fill="white" transform="translate(0 0.5)"/>
</clipPath>
</defs>
</svg>
