<svg id="ergdESUiIn01" xmlns="http://www.w3.org/2000/svg" xmlns:xlink="http://www.w3.org/1999/xlink" viewBox="0 0 50 51" shape-rendering="geometricPrecision" text-rendering="geometricPrecision"><g clip-path="url(#ergdESUiIn06)"><g><g transform="matrix(1.03397 0 0 1 0.147688 1.000194)"><path d="M20.8333,6.75v4.1667h-10.4166v29.1666h29.1666v-10.4166h4.1667v12.5c0,.5525-.2195,1.0824-.6102,1.4731s-.9206.6102-1.4731.6102h-33.33337c-.55253,0-1.08244-.2195-1.47314-.6102s-.61019-.9206-.61019-1.4731v-33.33337c0-.55253.21949-1.08244.61019-1.47314s.92061-.61019,1.47314-.61019h12.49997Zm15.8042,4.1667h-9.5542v-4.316894L43.75,6.75v16.6667h-4.1667v-9.5542L25,28.4458L22.0542,25.5L36.6375,10.9167Z" fill="#fff"/></g></g><clipPath id="ergdESUiIn06"><rect width="50" height="50" rx="0" ry="0" transform="translate(0 0.5)" fill="#fff"/></clipPath></g></svg>
