<svg width="50" height="51" viewBox="0 0 50 51" fill="none" xmlns="http://www.w3.org/2000/svg">
<path d="M47.6562 44.2498H46.875V16.1248C46.875 15.9176 46.7927 15.7189 46.6462 15.5724C46.4997 15.4259 46.3009 15.3436 46.0938 15.3436H33.8234C34.4422 13.5749 34.8495 11.7392 35.0367 9.87483H39.0625C39.217 9.8748 39.368 9.82896 39.4965 9.74312C39.6249 9.65727 39.725 9.53527 39.7841 9.39253C39.8432 9.2498 39.8587 9.09274 39.8286 8.94122C39.7985 8.78969 39.7241 8.6505 39.6148 8.54124L33.3648 2.29124C33.2183 2.14478 33.0197 2.0625 32.8125 2.0625C32.6053 2.0625 32.4067 2.14478 32.2602 2.29124L26.0102 8.54124C25.9009 8.6505 25.8265 8.78969 25.7964 8.94122C25.7663 9.09274 25.7818 9.2498 25.8409 9.39253C25.9 9.53527 26.0001 9.65727 26.1285 9.74312C26.257 9.82896 26.408 9.8748 26.5625 9.87483H29.0289C28.1166 11.9383 26.7997 13.7979 25.1562 15.3436H3.90625C3.69905 15.3436 3.50034 15.4259 3.35382 15.5724C3.20731 15.7189 3.125 15.9176 3.125 16.1248V44.2498H2.34375C2.13655 44.2498 1.93784 44.3321 1.79132 44.4787C1.64481 44.6252 1.5625 44.8239 1.5625 45.0311V46.5936C1.5625 47.2152 1.80943 47.8113 2.24897 48.2509C2.68851 48.6904 3.28465 48.9373 3.90625 48.9373H46.0938C46.7154 48.9373 47.3115 48.6904 47.751 48.2509C48.1906 47.8113 48.4375 47.2152 48.4375 46.5936V45.0311C48.4375 44.8239 48.3552 44.6252 48.2087 44.4787C48.0622 44.3321 47.8634 44.2498 47.6562 44.2498ZM30.9188 9.35999C30.9616 9.24199 30.9753 9.11542 30.9588 8.99099C30.9423 8.86656 30.8961 8.74793 30.8241 8.64515C30.752 8.54237 30.6563 8.45846 30.5449 8.40053C30.4336 8.34259 30.3099 8.31234 30.1844 8.31233H28.4484L32.8125 3.94827L37.1766 8.31233H34.3172C34.1186 8.3119 33.9273 8.38709 33.7822 8.52263C33.6371 8.65817 33.549 8.84388 33.5359 9.04202C33.1772 14.198 31.0525 19.0728 27.5197 22.8453C23.987 26.6179 19.262 29.0577 14.1406 29.7537L11.7188 30.0756V21.5084C15.8095 21.8764 19.9076 20.8856 23.3784 18.6894C26.8493 16.4933 29.4995 13.2143 30.9188 9.35999ZM4.6875 16.9061H23.2258C19.7399 19.3696 15.4546 20.4311 11.2219 19.8795L11.0437 19.8545C10.9331 19.8393 10.8205 19.848 10.7136 19.88C10.6066 19.912 10.5077 19.9666 10.4236 20.04C10.3395 20.1135 10.2721 20.2041 10.226 20.3058C10.1799 20.4075 10.1561 20.5179 10.1562 20.6295V30.9686C10.1562 31.1758 10.2386 31.3745 10.3851 31.521C10.5316 31.6675 10.7303 31.7498 10.9375 31.7498C10.972 31.7498 11.0064 31.7475 11.0406 31.7428L14.3438 31.303C18.466 30.7408 22.3718 29.1187 25.6795 26.5952C28.9872 24.0718 31.5835 20.7333 33.2148 16.9061H45.3125V44.2498H43.75V19.2498C43.75 19.0426 43.6677 18.8439 43.5212 18.6974C43.3747 18.5509 43.1759 18.4686 42.9688 18.4686H34.375V20.0311H42.1875V44.2498H7.8125V20.0311H9.375V18.4686H7.03125C6.82405 18.4686 6.62534 18.5509 6.47882 18.6974C6.33231 18.8439 6.25 19.0426 6.25 19.2498V44.2498H4.6875V16.9061ZM46.875 46.5936C46.875 46.8008 46.7927 46.9995 46.6462 47.146C46.4997 47.2925 46.3009 47.3748 46.0938 47.3748H3.90625C3.69905 47.3748 3.50034 47.2925 3.35382 47.146C3.20731 46.9995 3.125 46.8008 3.125 46.5936V45.8123H46.875V46.5936Z" fill="white"/>
<path d="M9.375 43.4688H40.625V41.9062H37.5V23.9375C37.5 23.7303 37.4177 23.5316 37.2712 23.3851C37.1247 23.2386 36.926 23.1562 36.7188 23.1562H32.0312C31.824 23.1562 31.6253 23.2386 31.4788 23.3851C31.3323 23.5316 31.25 23.7303 31.25 23.9375V41.9062H28.125V30.1875C28.125 29.9803 28.0427 29.7816 27.8962 29.6351C27.7497 29.4886 27.551 29.4062 27.3438 29.4062H22.6562C22.449 29.4062 22.2503 29.4886 22.1038 29.6351C21.9573 29.7816 21.875 29.9803 21.875 30.1875V41.9062H18.75V34.0938C18.75 33.8865 18.6677 33.6878 18.5212 33.5413C18.3747 33.3948 18.176 33.3125 17.9688 33.3125H13.2812C13.074 33.3125 12.8753 33.3948 12.7288 33.5413C12.5823 33.6878 12.5 33.8865 12.5 34.0938V41.9062H9.375V43.4688ZM32.8125 24.7188H35.9375V41.9062H32.8125V24.7188ZM23.4375 30.9688H26.5625V41.9062H23.4375V30.9688ZM14.0625 34.875H17.1875V41.9062H14.0625V34.875Z" fill="white"/>
<path d="M21.0938 2.0625H22.6562V3.625H21.0938V2.0625Z" fill="white"/>
<path d="M22.6562 3.625H24.2188V5.1875H22.6562V3.625Z" fill="white"/>
<path d="M21.0938 5.1875H22.6562V6.75H21.0938V5.1875Z" fill="white"/>
<path d="M19.5312 3.625H21.0938V5.1875H19.5312V3.625Z" fill="white"/>
<path d="M17.9688 8.3125H19.5312V9.875H17.9688V8.3125Z" fill="white"/>
<path d="M46.875 9.875H48.4375V11.4375H46.875V9.875Z" fill="white"/>
<path d="M45.3125 11.4375H46.875V13H45.3125V11.4375Z" fill="white"/>
<path d="M43.75 9.875H45.3125V11.4375H43.75V9.875Z" fill="white"/>
<path d="M45.3125 8.3125H46.875V9.875H45.3125V8.3125Z" fill="white"/>
<path d="M42.1875 5.1875H43.75V6.75H42.1875V5.1875Z" fill="white"/>
<path d="M14.0625 25.4996H12.5V27.8434C12.5 28.0506 12.5823 28.2493 12.7288 28.3958C12.8753 28.5423 13.074 28.6246 13.2812 28.6246C15.951 28.5083 18.5357 27.6513 20.7461 26.1496L19.8789 24.8496C18.138 26.0213 16.1452 26.766 14.0625 27.023V25.4996Z" fill="white"/>
<path d="M12.5 22.375H14.0625V23.9375H12.5V22.375Z" fill="white"/>
</svg>
