<svg width="80" height="81" viewBox="0 0 80 81" fill="none" xmlns="http://www.w3.org/2000/svg">
<g clip-path="url(#clip0_34717_5902)">
<path d="M46.7964 78.9375H32.7339V65.5H46.7964V78.9375ZM37.4214 75.8125H42.1089V70.1875H37.4214V75.8125Z" fill="#8B8992"/>
<path d="M39.9995 70.1875H42.1089V75.8125H39.9995V78.9375H46.7964V65.5H39.9995V70.1875Z" fill="#57555C"/>
<path d="M75.0776 59.25H4.92139V21.75H75.0776V59.25Z" fill="#9BC9FF"/>
<path d="M75.0762 21.75H39.998V59.25H75.0762V21.75Z" fill="#009AE5"/>
<path d="M51.4824 75.8125H28.0449V80.5H51.4824V75.8125Z" fill="#005ECE"/>
<path d="M37.4214 59.25H23.3589V27.2188H37.4214V59.25Z" fill="#B87FD9"/>
<path d="M37.4214 59.25H30.3901V27.2188H37.4214V59.25Z" fill="#8034AD"/>
<path d="M45.263 20.9688H15.3591L9.2793 0.5H18.2235C21.4171 0.5 25.1341 1.64281 28.0454 3.70344V0.5H51.3427L45.263 20.9688Z" fill="#8B8992"/>
<path d="M51.3437 0.5H30.312V20.9688H45.264L51.3437 0.5Z" fill="#57555C"/>
<path d="M38.8276 31.9062H21.9526C18.0756 31.9062 14.9214 28.752 14.9214 24.875V16.2812H45.8589V24.875C45.8589 28.752 42.7047 31.9062 38.8276 31.9062Z" fill="#E3CEF0"/>
<path d="M30.3901 16.2812V31.9062H38.8276C42.7047 31.9062 45.8589 28.752 45.8589 24.875V16.2812H30.3901Z" fill="#D5B4E8"/>
<path d="M66.829 18.9915C65.4022 18.9915 63.9944 18.6175 62.7257 17.885C60.8212 16.7853 59.4587 15.0098 58.8896 12.8854C58.3204 10.7612 58.6124 8.54246 59.7121 6.63793C60.8118 4.7334 62.5872 3.37105 64.7116 2.80184L72.6644 0.670898L74.7952 8.62371C75.3644 10.7479 75.0724 12.9667 73.9727 14.8712C72.873 16.7757 71.0977 18.1382 68.9733 18.7073C68.2641 18.8975 67.544 18.9915 66.829 18.9915Z" fill="#E0E0E2"/>
<path d="M74.7954 8.62371L72.6647 0.670898H72.6645L62.7261 17.8848C63.9948 18.6173 65.4026 18.9915 66.8294 18.9914C67.5445 18.9914 68.2645 18.8973 68.9737 18.7073C71.0979 18.1381 72.8734 16.7757 73.9731 14.8712C75.0726 12.9667 75.3647 10.7479 74.7954 8.62371Z" fill="#ACABB1"/>
<path d="M43.8933 64.5664L31.7148 57.5351L51.2461 23.7061L63.4245 30.7373L43.8933 64.5664Z" fill="#FFE477"/>
<path d="M37.8032 61.0499L43.8921 64.5654L63.4229 30.738L57.334 27.2224L37.8032 61.0499Z" fill="#FFA733"/>
<path d="M62.8845 35.8382L47.0977 26.7237L60.7022 11.3037L69.4363 16.3464L62.8845 35.8382Z" fill="#FF9A00"/>
<path d="M69.4369 16.3464L65.0698 13.8252L54.9917 31.281L62.8851 35.8383L69.4369 16.3464Z" fill="#E67500"/>
<path d="M75.0776 70.1875H4.92139V54.5625H75.0776V70.1875Z" fill="#005ECE"/>
<path d="M75.0762 54.5625H39.998V70.1875H75.0762V54.5625Z" fill="#003F8A"/>
<path d="M51.4824 75.8125H39.7637V80.5H51.4824V75.8125Z" fill="#003F8A"/>
</g>
<defs>
<clipPath id="clip0_34717_5902">
<rect width="80" height="80" fill="white" transform="translate(0 0.5)"/>
</clipPath>
</defs>
</svg>
