<svg width="14" height="15" viewBox="0 0 14 15" fill="none" xmlns="http://www.w3.org/2000/svg">
<path fill-rule="evenodd" clip-rule="evenodd" d="M4.08337 6.91689C4.08337 6.59489 4.3447 6.33356 4.6667 6.33356C4.9887 6.33356 5.25004 6.59489 5.25004 6.91689C5.25004 7.23889 4.9887 7.50023 4.6667 7.50023C4.3447 7.50023 4.08337 7.23889 4.08337 6.91689ZM7.00004 6.33356C6.67804 6.33356 6.4167 6.59489 6.4167 6.91689C6.4167 7.23889 6.67804 7.50023 7.00004 7.50023C7.32204 7.50023 7.58337 7.23889 7.58337 6.91689C7.58337 6.59489 7.32204 6.33356 7.00004 6.33356ZM9.33337 6.33356C9.01137 6.33356 8.75004 6.59489 8.75004 6.91689C8.75004 7.23889 9.01137 7.50023 9.33337 7.50023C9.65537 7.50023 9.9167 7.23889 9.9167 6.91689C9.9167 6.59489 9.65537 6.33356 9.33337 6.33356ZM11.6074 7.67225C11.3117 9.57041 9.78157 11.1448 7.88632 11.5001C6.97107 11.6727 6.03891 11.5742 5.19307 11.216C4.95332 11.1145 4.70541 11.0632 4.46216 11.0632C4.35132 11.0632 4.24166 11.0737 4.13374 11.0952L2.49341 11.4231L2.82182 9.77983C2.89066 9.43858 2.84866 9.07341 2.70107 8.724C2.34291 7.87816 2.24491 6.94658 2.41699 6.03075C2.77224 4.1355 4.34607 2.60541 6.24482 2.30966C7.75566 2.07458 9.23324 2.55058 10.2996 3.61691C11.3665 4.68383 11.8431 6.162 11.6074 7.67225ZM11.1249 2.79208C9.79202 1.45975 7.94869 0.865334 6.0651 1.15642C3.68685 1.52742 1.71519 3.44308 1.2701 5.8155C1.05544 6.95767 1.1791 8.12083 1.62652 9.17842C1.6831 9.31317 1.7006 9.43858 1.67844 9.55117L1.17794 12.0525C1.13944 12.2438 1.19952 12.4416 1.33777 12.5793C1.44802 12.6901 1.59677 12.7502 1.75019 12.7502C1.7881 12.7502 1.82602 12.7467 1.86452 12.7391L4.36294 12.2392C4.50644 12.2118 4.64527 12.252 4.73802 12.2905C5.79677 12.7379 6.95994 12.861 8.10094 12.6469C10.4739 12.2018 12.3896 10.2302 12.7606 7.85192C13.0534 5.9695 12.4579 4.125 11.1249 2.79208Z" fill="#373737"/>
<mask id="mask0_34717_6705" style="mask-type:luminance" maskUnits="userSpaceOnUse" x="1" y="1" width="12" height="12">
<path fill-rule="evenodd" clip-rule="evenodd" d="M4.08337 6.91689C4.08337 6.59489 4.3447 6.33356 4.6667 6.33356C4.9887 6.33356 5.25004 6.59489 5.25004 6.91689C5.25004 7.23889 4.9887 7.50023 4.6667 7.50023C4.3447 7.50023 4.08337 7.23889 4.08337 6.91689ZM7.00004 6.33356C6.67804 6.33356 6.4167 6.59489 6.4167 6.91689C6.4167 7.23889 6.67804 7.50023 7.00004 7.50023C7.32204 7.50023 7.58337 7.23889 7.58337 6.91689C7.58337 6.59489 7.32204 6.33356 7.00004 6.33356ZM9.33337 6.33356C9.01137 6.33356 8.75004 6.59489 8.75004 6.91689C8.75004 7.23889 9.01137 7.50023 9.33337 7.50023C9.65537 7.50023 9.9167 7.23889 9.9167 6.91689C9.9167 6.59489 9.65537 6.33356 9.33337 6.33356ZM11.6074 7.67225C11.3117 9.57041 9.78157 11.1448 7.88632 11.5001C6.97107 11.6727 6.03891 11.5742 5.19307 11.216C4.95332 11.1145 4.70541 11.0632 4.46216 11.0632C4.35132 11.0632 4.24166 11.0737 4.13374 11.0952L2.49341 11.4231L2.82182 9.77983C2.89066 9.43858 2.84866 9.07341 2.70107 8.724C2.34291 7.87816 2.24491 6.94658 2.41699 6.03075C2.77224 4.1355 4.34607 2.60541 6.24482 2.30966C7.75566 2.07458 9.23324 2.55058 10.2996 3.61691C11.3665 4.68383 11.8431 6.162 11.6074 7.67225ZM11.1249 2.79208C9.79202 1.45975 7.94869 0.865334 6.0651 1.15642C3.68685 1.52742 1.71519 3.44308 1.2701 5.8155C1.05544 6.95767 1.1791 8.12083 1.62652 9.17842C1.6831 9.31317 1.7006 9.43858 1.67844 9.55117L1.17794 12.0525C1.13944 12.2438 1.19952 12.4416 1.33777 12.5793C1.44802 12.6901 1.59677 12.7502 1.75019 12.7502C1.7881 12.7502 1.82602 12.7467 1.86452 12.7391L4.36294 12.2392C4.50644 12.2118 4.64527 12.252 4.73802 12.2905C5.79677 12.7379 6.95994 12.861 8.10094 12.6469C10.4739 12.2018 12.3896 10.2302 12.7606 7.85192C13.0534 5.9695 12.4579 4.125 11.1249 2.79208Z" fill="white"/>
</mask>
<g mask="url(#mask0_34717_6705)">
<rect y="0.5" width="14" height="14" fill="#373737"/>
</g>
</svg>
