<svg width="80" height="81" viewBox="0 0 80 81" fill="none" xmlns="http://www.w3.org/2000/svg">
<g clip-path="url(#clip0_34717_5918)">
<path d="M60.6864 0.5H19.3126C17.7871 0.5 16.5513 1.73586 16.5513 3.26138V69.4655H63.4478V3.26138C63.4478 1.73586 62.212 0.5 60.6864 0.5V0.5Z" fill="#EBBA16"/>
<path d="M44.1381 7.39631H35.8622C35.1008 7.39631 34.4829 6.77838 34.4829 6.017C34.4829 5.25563 35.1008 4.6377 35.8622 4.6377H44.1381C44.8995 4.6377 45.5174 5.25563 45.5174 6.017C45.5174 6.77838 44.8995 7.39631 44.1381 7.39631Z" fill="white"/>
<path d="M60.0602 80.5H19.9389C18.0671 80.5 16.5513 78.9841 16.5513 77.1124V63.9482H63.4478V77.1124C63.4478 78.9841 61.932 80.5 60.0602 80.5Z" fill="#EAEFF0"/>
<path d="M39.9997 76.3618C42.2851 76.3618 44.1377 74.5092 44.1377 72.2239C44.1377 69.9386 42.2851 68.0859 39.9997 68.0859C37.7144 68.0859 35.8618 69.9386 35.8618 72.2239C35.8618 74.5092 37.7144 76.3618 39.9997 76.3618Z" fill="#B8BEC3"/>
<path d="M42.758 18.4307L24.827 25.3272L22.0684 44.6376L37.2408 57.0513L55.1718 50.1548L57.9304 30.8445L42.758 18.4307Z" fill="#DC691D"/>
<path d="M28.9674 43.2585C28.4612 43.2585 27.9743 42.9799 27.7329 42.4957C27.3922 41.8144 27.6681 40.9854 28.3495 40.6447L38.7233 35.4571L40.0115 25.155C40.1067 24.3992 40.7964 23.875 41.5508 23.9578C42.3067 24.0516 42.8433 24.7413 42.7481 25.4971L41.3688 36.5316C41.3122 36.9895 41.0295 37.3881 40.6171 37.595L29.5826 43.1123C29.3853 43.2116 29.1743 43.2585 28.9674 43.2585Z" fill="white"/>
<path d="M49.6558 46.0171C49.3385 46.0171 49.0185 45.9082 48.7592 45.6847L39.1041 37.4089C38.5261 36.9137 38.4585 36.0433 38.9551 35.4654C39.4503 34.8847 40.322 34.8185 40.8999 35.3164L50.5551 43.5923C51.133 44.0875 51.2006 44.9578 50.7041 45.5357C50.431 45.8544 50.0434 46.0171 49.6558 46.0171Z" fill="white"/>
</g>
<defs>
<clipPath id="clip0_34717_5918">
<rect width="80" height="80" fill="white" transform="translate(0 0.5)"/>
</clipPath>
</defs>
</svg>
