<svg width="14" height="15" viewBox="0 0 14 15" fill="none" xmlns="http://www.w3.org/2000/svg">
<path fill-rule="evenodd" clip-rule="evenodd" d="M8.1665 4.58333C8.1665 3.93992 7.64325 3.41667 6.99984 3.41667C6.35642 3.41667 5.83317 3.93992 5.83317 4.58333C5.83317 5.22675 6.35642 5.75 6.99984 5.75C7.64325 5.75 8.1665 5.22675 8.1665 4.58333ZM9.33317 4.58333C9.33317 5.87017 8.28667 6.91667 6.99984 6.91667C5.713 6.91667 4.6665 5.87017 4.6665 4.58333C4.6665 3.2965 5.713 2.25 6.99984 2.25C8.28667 2.25 9.33317 3.2965 9.33317 4.58333ZM2.9165 12.1667C2.9165 9.915 4.74875 8.08333 6.99984 8.08333C9.25092 8.08333 11.0832 9.915 11.0832 12.1667C11.0832 12.4887 10.8224 12.75 10.4998 12.75C10.1773 12.75 9.9165 12.4887 9.9165 12.1667C9.9165 10.5584 8.60809 9.25 6.99984 9.25C5.39159 9.25 4.08317 10.5584 4.08317 12.1667C4.08317 12.4887 3.82242 12.75 3.49984 12.75C3.17725 12.75 2.9165 12.4887 2.9165 12.1667Z" fill="#373737"/>
<mask id="mask0_34717_6701" style="mask-type:luminance" maskUnits="userSpaceOnUse" x="2" y="2" width="10" height="11">
<path fill-rule="evenodd" clip-rule="evenodd" d="M8.1665 4.58333C8.1665 3.93992 7.64325 3.41667 6.99984 3.41667C6.35642 3.41667 5.83317 3.93992 5.83317 4.58333C5.83317 5.22675 6.35642 5.75 6.99984 5.75C7.64325 5.75 8.1665 5.22675 8.1665 4.58333ZM9.33317 4.58333C9.33317 5.87017 8.28667 6.91667 6.99984 6.91667C5.713 6.91667 4.6665 5.87017 4.6665 4.58333C4.6665 3.2965 5.713 2.25 6.99984 2.25C8.28667 2.25 9.33317 3.2965 9.33317 4.58333ZM2.9165 12.1667C2.9165 9.915 4.74875 8.08333 6.99984 8.08333C9.25092 8.08333 11.0832 9.915 11.0832 12.1667C11.0832 12.4887 10.8224 12.75 10.4998 12.75C10.1773 12.75 9.9165 12.4887 9.9165 12.1667C9.9165 10.5584 8.60809 9.25 6.99984 9.25C5.39159 9.25 4.08317 10.5584 4.08317 12.1667C4.08317 12.4887 3.82242 12.75 3.49984 12.75C3.17725 12.75 2.9165 12.4887 2.9165 12.1667Z" fill="white"/>
</mask>
<g mask="url(#mask0_34717_6701)">
<rect y="0.5" width="14" height="14" fill="#373737"/>
</g>
</svg>
