<svg width="50" height="51" viewBox="0 0 50 51" fill="none" xmlns="http://www.w3.org/2000/svg">
<path d="M1.71981 40.0313L3.79272 42.7951L1.62673 47.8484C1.49551 48.1551 1.57256 48.511 1.81976 48.735C1.967 48.8685 2.15544 48.9375 2.34465 48.9375C2.47359 48.9375 2.60329 48.9059 2.72079 48.8406L18.3458 40.2469C18.596 40.1099 18.7509 39.8475 18.7509 39.5625C18.7509 39.2776 18.596 39.0151 18.3458 38.8782L2.72079 30.2844C2.43087 30.1238 2.06695 30.1654 1.81976 30.3901C1.57256 30.614 1.49551 30.9699 1.62673 31.2766L3.79272 36.3299L1.71981 39.0937C1.51152 39.3714 1.51152 39.7536 1.71981 40.0313ZM5.25093 43.358L12.5851 41.6323L3.95675 46.3779L5.25093 43.358ZM12.5851 37.4927L5.25093 35.767L3.95674 32.7472L12.5851 37.4927ZM5.0066 37.3152L14.5576 39.5625L5.0066 41.8098L3.32122 39.5625L5.0066 37.3152Z" fill="white"/>
<path d="M35.9375 2.0625C29.3088 2.0625 23.8837 7.2532 23.4771 13.7812H21.4172L19.3024 11.6664L18.1976 12.7711L19.2078 13.7812H16.0156C11.4922 13.7812 7.8125 17.4613 7.8125 21.9844C7.8125 26.5075 11.4922 30.1875 16.0156 30.1875H24.6765L26.7914 32.3024L27.8961 31.1976L26.886 30.1875H41.7969C44.1658 30.1875 46.0938 32.1151 46.0938 34.4844C46.0938 36.8537 44.1658 38.7812 41.7969 38.7812H34.6985L32.5836 36.6664L31.4789 37.7711L32.489 38.7812H20.3125V40.3438H32.489L31.4789 41.3539L32.5836 42.4586L34.6985 40.3438H41.7969C45.0279 40.3438 47.6562 37.7154 47.6562 34.4844C47.6562 31.2533 45.0279 28.625 41.7969 28.625H26.886L27.8961 27.6149L26.7914 26.5101L24.6765 28.625H16.0156C12.3543 28.625 9.375 25.6461 9.375 21.9844C9.375 18.3226 12.3543 15.3438 16.0156 15.3438H19.2078L18.1976 16.3539L19.3024 17.4586L21.4172 15.3438H23.4771C23.8837 21.8718 29.3088 27.0625 35.9375 27.0625C42.8299 27.0625 48.4375 21.4549 48.4375 14.5625C48.4375 7.6701 42.8299 2.0625 35.9375 2.0625ZM35.9375 25.5C30.1702 25.5 25.4429 21.0101 25.0396 15.3438H27.3833C27.7798 19.7171 31.4626 23.1562 35.9375 23.1562C40.6761 23.1562 44.5312 19.3011 44.5312 14.5625C44.5312 9.82388 40.6761 5.96875 35.9375 5.96875C31.4626 5.96875 27.7798 9.40789 27.3833 13.7812H25.0396C25.4429 8.1149 30.1702 3.625 35.9375 3.625C41.9685 3.625 46.875 8.53146 46.875 14.5625C46.875 20.5935 41.9685 25.5 35.9375 25.5ZM34.1461 17.4586L36.4899 15.1149C36.795 14.8097 36.795 14.3153 36.4899 14.0101L34.1461 11.6664L33.0414 12.7711L34.0515 13.7812H28.9524C29.3426 10.2711 32.3246 7.53125 35.9375 7.53125C39.8148 7.53125 42.9688 10.6856 42.9688 14.5625C42.9688 18.4394 39.8148 21.5938 35.9375 21.5938C32.3246 21.5938 29.3426 18.8539 28.9524 15.3438H34.0515L33.0414 16.3539L34.1461 17.4586Z" fill="white"/>
<path d="M40.625 14.5625C40.625 11.9777 38.5223 9.875 35.9375 9.875V11.4375C37.661 11.4375 39.0625 12.8394 39.0625 14.5625C39.0625 16.2856 37.661 17.6875 35.9375 17.6875V19.25C38.5223 19.25 40.625 17.1473 40.625 14.5625Z" fill="white"/>
</svg>
