<svg width="14" height="15" viewBox="0 0 14 15" fill="none" xmlns="http://www.w3.org/2000/svg">
<path fill-rule="evenodd" clip-rule="evenodd" d="M8.75 7.50065H7.58333V6.33398C7.58333 6.0114 7.322 5.75065 7 5.75065C6.678 5.75065 6.41667 6.0114 6.41667 6.33398V8.08398C6.41667 8.40657 6.678 8.66732 7 8.66732H8.75C9.072 8.66732 9.33333 8.40657 9.33333 8.08398C9.33333 7.7614 9.072 7.50065 8.75 7.50065ZM7 12.0215C4.82883 12.0215 3.0625 10.2552 3.0625 8.08398C3.0625 5.91282 4.82883 4.14648 7 4.14648C9.17117 4.14648 10.9375 5.91282 10.9375 8.08398C10.9375 10.2552 9.17117 12.0215 7 12.0215ZM7.57633 2.86782C7.5775 2.85557 7.58333 2.84623 7.58333 2.83398V2.25065H8.16667C8.48867 2.25065 8.75 1.9899 8.75 1.66732C8.75 1.34473 8.48867 1.08398 8.16667 1.08398H5.83333C5.51133 1.08398 5.25 1.34473 5.25 1.66732C5.25 1.9899 5.51133 2.25065 5.83333 2.25065H6.41667V2.83398C6.41667 2.84623 6.4225 2.85557 6.42367 2.86782C3.79925 3.15598 1.75 5.38432 1.75 8.08398C1.75 10.9791 4.1055 13.334 7 13.334C9.8945 13.334 12.25 10.9791 12.25 8.08398C12.25 5.38432 10.2007 3.15598 7.57633 2.86782Z" fill="#373737"/>
<mask id="mask0_34717_6699" style="mask-type:luminance" maskUnits="userSpaceOnUse" x="1" y="1" width="12" height="13">
<path fill-rule="evenodd" clip-rule="evenodd" d="M8.75 7.50065H7.58333V6.33398C7.58333 6.0114 7.322 5.75065 7 5.75065C6.678 5.75065 6.41667 6.0114 6.41667 6.33398V8.08398C6.41667 8.40657 6.678 8.66732 7 8.66732H8.75C9.072 8.66732 9.33333 8.40657 9.33333 8.08398C9.33333 7.7614 9.072 7.50065 8.75 7.50065ZM7 12.0215C4.82883 12.0215 3.0625 10.2552 3.0625 8.08398C3.0625 5.91282 4.82883 4.14648 7 4.14648C9.17117 4.14648 10.9375 5.91282 10.9375 8.08398C10.9375 10.2552 9.17117 12.0215 7 12.0215ZM7.57633 2.86782C7.5775 2.85557 7.58333 2.84623 7.58333 2.83398V2.25065H8.16667C8.48867 2.25065 8.75 1.9899 8.75 1.66732C8.75 1.34473 8.48867 1.08398 8.16667 1.08398H5.83333C5.51133 1.08398 5.25 1.34473 5.25 1.66732C5.25 1.9899 5.51133 2.25065 5.83333 2.25065H6.41667V2.83398C6.41667 2.84623 6.4225 2.85557 6.42367 2.86782C3.79925 3.15598 1.75 5.38432 1.75 8.08398C1.75 10.9791 4.1055 13.334 7 13.334C9.8945 13.334 12.25 10.9791 12.25 8.08398C12.25 5.38432 10.2007 3.15598 7.57633 2.86782Z" fill="white"/>
</mask>
<g mask="url(#mask0_34717_6699)">
<rect y="0.5" width="14" height="14" fill="#373737"/>
</g>
</svg>
