<svg width="50" height="51" viewBox="0 0 50 51" fill="none" xmlns="http://www.w3.org/2000/svg">
<path d="M47.6563 5.96875H40.9453L37.2735 2.28906C37.1245 2.14516 36.9259 2.06404 36.7188 2.0625H3.90627C3.69907 2.0625 3.50036 2.14481 3.35385 2.29132C3.20733 2.43784 3.12502 2.63655 3.12502 2.84375V3.86719C3.12701 5.00338 3.41415 6.1209 3.96014 7.11732C4.50612 8.11373 5.29347 8.95717 6.25002 9.57031V9.875H5.46877C4.84774 9.87685 4.25268 10.1244 3.81354 10.5635C3.3744 11.0027 3.12688 11.5977 3.12502 12.2188V13C3.12688 13.621 3.3744 14.2161 3.81354 14.6552C4.25268 15.0944 4.84774 15.3419 5.46877 15.3438H6.25002V16.9062C6.24763 17.8302 6.42793 18.7456 6.78055 19.5997C7.13317 20.4537 7.65115 21.2296 8.30471 21.8828C8.63577 22.2046 8.99386 22.4973 9.37502 22.7578V23.375C9.3776 24.0475 9.16197 24.7027 8.7605 25.2422C8.35902 25.7818 7.79337 26.1765 7.14846 26.3672L5.46096 26.875C4.33262 27.2088 3.34286 27.8993 2.64002 28.8429C1.93718 29.7866 1.55912 30.9327 1.56252 32.1094V48.1562C1.56252 48.3634 1.64483 48.5622 1.79135 48.7087C1.93786 48.8552 2.13657 48.9375 2.34377 48.9375H47.6563C47.8635 48.9375 48.0622 48.8552 48.2087 48.7087C48.3552 48.5622 48.4375 48.3634 48.4375 48.1562V6.75C48.4375 6.5428 48.3552 6.34409 48.2087 6.19757C48.0622 6.05106 47.8635 5.96875 47.6563 5.96875ZM6.25002 13.7812H5.46877C5.26157 13.7812 5.06286 13.6989 4.91635 13.5524C4.76983 13.4059 4.68752 13.2072 4.68752 13V12.2188C4.68752 12.0115 4.76983 11.8128 4.91635 11.6663C5.06286 11.5198 5.26157 11.4375 5.46877 11.4375H6.25002V13.7812ZM37.5 4.72656L41.8672 9.09375H37.5V4.72656ZM35.9375 3.625V9.875C35.9375 10.0822 36.0198 10.2809 36.1663 10.4274C36.3129 10.5739 36.5116 10.6562 36.7188 10.6562H42.9688V43.4688H25V32.1094C25.0034 30.9327 24.6254 29.7866 23.9225 28.8429C23.2197 27.8993 22.2299 27.2088 21.1016 26.875L19.4141 26.3672C18.7692 26.1765 18.2035 25.7818 17.802 25.2422C17.4006 24.7027 17.1849 24.0475 17.1875 23.375V22.75C18.1481 22.1073 18.9357 21.2381 19.4807 20.2189C20.0257 19.1997 20.3114 18.062 20.3125 16.9062V15.3438H21.0938C21.7148 15.3419 22.3099 15.0944 22.749 14.6552C23.1881 14.2161 23.4357 13.621 23.4375 13V12.2188C23.4357 11.5977 23.1881 11.0027 22.749 10.5635C22.3099 10.1244 21.7148 9.87685 21.0938 9.875H20.3125V7.53125C20.3129 6.80299 20.1672 6.08206 19.8841 5.4111C19.601 4.74014 19.1861 4.13279 18.6641 3.625H35.9375ZM13.2813 27.0078L10.211 25.8594C10.6525 25.1583 10.898 24.3516 10.9219 23.5234C11.6791 23.7946 12.477 23.9347 13.2813 23.9375C14.0857 23.9367 14.884 23.7966 15.6406 23.5234C15.6646 24.3516 15.9101 25.1583 16.3516 25.8594L13.2813 27.0078ZM14.0391 29.7031L13.6719 30.1875H12.8906L12.5235 29.7031L13.2813 28.9453L14.0391 29.7031ZM17.4844 27.1016C17.6398 27.2173 17.8015 27.3242 17.9688 27.4219L16.8828 30.3359L14.6875 28.1484L17.4844 27.1016ZM20.3125 13.7812V11.4375H21.0938C21.301 11.4375 21.4997 11.5198 21.6462 11.6663C21.7927 11.8128 21.875 12.0115 21.875 12.2188V13C21.875 13.2072 21.7927 13.4059 21.6462 13.5524C21.4997 13.6989 21.301 13.7812 21.0938 13.7812H20.3125ZM4.68752 3.86719V3.625H14.8438C15.3567 3.625 15.8647 3.72604 16.3386 3.92235C16.8126 4.11865 17.2432 4.40639 17.6059 4.76911C17.9686 5.13184 18.2564 5.56246 18.4527 6.03639C18.649 6.51032 18.75 7.01827 18.75 7.53125V9.09375H9.91409C8.52855 9.09168 7.20035 8.54037 6.22063 7.56064C5.24091 6.58092 4.68959 5.25272 4.68752 3.86719ZM7.81252 16.9062V10.3203C8.49063 10.5437 9.20013 10.6571 9.91409 10.6562H18.75V16.9062C18.75 18.3567 18.1739 19.7477 17.1483 20.7732C16.1227 21.7988 14.7317 22.375 13.2813 22.375C11.8309 22.375 10.4399 21.7988 9.41428 20.7732C8.38869 19.7477 7.81252 18.3567 7.81252 16.9062ZM9.08596 27.1016L11.875 28.1484L9.67971 30.3359L8.59377 27.4219C8.75784 27.3203 8.92971 27.2188 9.08596 27.1016ZM7.03127 47.375V34.875H5.46877V47.375H3.12502V32.1094C3.12172 31.2686 3.39204 30.4495 3.89517 29.7759C4.3983 29.1022 5.10693 28.6105 5.91409 28.375L7.14065 28.0078L8.64065 32.0234C8.6872 32.1465 8.76375 32.256 8.86335 32.3419C8.96294 32.4279 9.08243 32.4876 9.21096 32.5156C9.26521 32.5247 9.32004 32.5299 9.37502 32.5312C9.58257 32.5319 9.78194 32.4504 9.92971 32.3047L11.4063 30.8203L11.6797 31.1797L9.47659 47.375H7.03127ZM11.0547 47.375L13.1797 31.75H13.3828L15.5078 47.375H11.0547ZM23.4375 47.375H21.0938V34.875H19.5313V47.375H17.086L14.8828 31.1797L15.1563 30.8203L16.6328 32.3047C16.7806 32.4504 16.98 32.5319 17.1875 32.5312C17.2425 32.5299 17.2973 32.5247 17.3516 32.5156C17.4801 32.4876 17.5996 32.4279 17.6992 32.3419C17.7988 32.256 17.8753 32.1465 17.9219 32.0234L19.4219 28.0078L20.6485 28.375C21.4556 28.6105 22.1642 29.1022 22.6674 29.7759C23.1705 30.4495 23.4408 31.2686 23.4375 32.1094V47.375ZM46.875 47.375H25V45.0312H43.75C43.9572 45.0312 44.1559 44.9489 44.3025 44.8024C44.449 44.6559 44.5313 44.4572 44.5313 44.25V9.875C44.5297 9.66788 44.4486 9.46928 44.3047 9.32031L42.5078 7.53125H46.875V47.375Z" fill="white"/>
<path d="M25.0539 18.4688H22.6562V20.0312H25.0539C25.2292 21.4061 25.856 22.6839 26.8361 23.6639C27.8161 24.644 29.0939 25.2708 30.4688 25.4461V27.8438H32.0312V25.4461C33.4061 25.2708 34.6839 24.644 35.6639 23.6639C36.644 22.6839 37.2708 21.4061 37.4461 20.0312H39.8438V18.4688H37.4461C37.2708 17.0939 36.644 15.8161 35.6639 14.8361C34.6839 13.856 33.4061 13.2292 32.0312 13.0539V10.6562H30.4688V13.0539C29.0939 13.2292 27.8161 13.856 26.8361 14.8361C25.856 15.8161 25.2292 17.0939 25.0539 18.4688ZM30.4688 14.6328V16.125H32.0312V14.6328C32.989 14.7965 33.8724 15.2534 34.5595 15.9405C35.2466 16.6276 35.7035 17.511 35.8672 18.4688H34.375V20.0312H35.8672C35.7035 20.989 35.2466 21.8724 34.5595 22.5595C33.8724 23.2466 32.989 23.7035 32.0312 23.8672V22.375H30.4688V23.8672C29.511 23.7035 28.6276 23.2466 27.9405 22.5595C27.2534 21.8724 26.7965 20.989 26.6328 20.0312H28.125V18.4688H26.6328C26.7965 17.511 27.2534 16.6276 27.9405 15.9405C28.6276 15.2534 29.511 14.7965 30.4688 14.6328Z" fill="white"/>
<path d="M39.8438 30.1875H26.5625V31.75H39.8438V30.1875Z" fill="white"/>
<path d="M28.9062 33.3125H26.5625V34.875H28.9062V33.3125Z" fill="white"/>
<path d="M39.8438 33.3125H30.4688V34.875H39.8438V33.3125Z" fill="white"/>
<path d="M39.8438 36.4375H26.5625V38H39.8438V36.4375Z" fill="white"/>
<path d="M13.2812 20.8125C15.0336 20.8125 16.4062 19.7828 16.4062 18.4688H14.8438C14.8438 18.7875 14.2352 19.25 13.2812 19.25C12.3273 19.25 11.7188 18.7875 11.7188 18.4688H10.1562C10.1562 19.7828 11.5289 20.8125 13.2812 20.8125Z" fill="white"/>
<path d="M10.9375 15.3438C11.1447 15.3438 11.3434 15.2614 11.4899 15.1149C11.6364 14.9684 11.7188 14.7697 11.7188 14.5625V13.7812C11.7188 13.574 11.6364 13.3753 11.4899 13.2288C11.3434 13.0823 11.1447 13 10.9375 13C10.7303 13 10.5316 13.0823 10.3851 13.2288C10.2386 13.3753 10.1562 13.574 10.1562 13.7812V14.5625C10.1562 14.7697 10.2386 14.9684 10.3851 15.1149C10.5316 15.2614 10.7303 15.3438 10.9375 15.3438Z" fill="white"/>
<path d="M15.625 15.3438C15.8322 15.3438 16.0309 15.2614 16.1774 15.1149C16.3239 14.9684 16.4062 14.7697 16.4062 14.5625V13.7812C16.4062 13.574 16.3239 13.3753 16.1774 13.2288C16.0309 13.0823 15.8322 13 15.625 13C15.4178 13 15.2191 13.0823 15.0726 13.2288C14.9261 13.3753 14.8438 13.574 14.8438 13.7812V14.5625C14.8438 14.7697 14.9261 14.9684 15.0726 15.1149C15.2191 15.2614 15.4178 15.3438 15.625 15.3438Z" fill="white"/>
</svg>
