<svg width="80" height="81" viewBox="0 0 80 81" fill="none" xmlns="http://www.w3.org/2000/svg">
<g clip-path="url(#clip0_34717_5910)">
<path d="M28.2812 63.9375H51.7188V78.1562H28.2812V63.9375Z" fill="#D8D8FC"/>
<path d="M40 63.9375H51.7188V78.1562H40V63.9375Z" fill="#A3A3D1"/>
<path d="M80 0.5V56.75L75.3125 61.4375H4.6875L0 56.75V0.5H80Z" fill="#32393F"/>
<path d="M80 0.5V56.75L75.3125 61.4375H40V0.5H80Z" fill="#32393F"/>
<path d="M4.6875 5.1875H75.3125V52.0625H4.6875V5.1875Z" fill="#FFD396"/>
<path d="M40 5.1875H75.3125V52.0625H40V5.1875Z" fill="#FFB64C"/>
<path d="M18.9062 75.8125H61.0938V80.5H18.9062V75.8125Z" fill="#F2F2FC"/>
<path d="M40 75.8125H61.0938V80.5H40V75.8125Z" fill="#D8D8FC"/>
<path d="M52.0002 35.6562L47.0314 47.375L41.4534 52.0625H38.5469L32.9689 47.375L28 35.6562L37.375 16.9062H42.6252L52.0002 35.6562Z" fill="#F2F2FC"/>
<path d="M52.0001 35.6562L47.0312 47.375L41.4532 52.0625H40V16.9062H42.6251L52.0001 35.6562Z" fill="#D8D8FC"/>
<path d="M37.6562 16.9062H42.3438V38H37.6562V16.9062Z" fill="#D8D8FC"/>
<path d="M40 16.9062H42.3438V38H40V16.9062Z" fill="#A3A3D1"/>
<path d="M21.25 14.5625H58.75V19.25H21.25V14.5625Z" fill="#575F64"/>
<path d="M40 14.5625H58.75V19.25H40V14.5625Z" fill="#32393F"/>
<path d="M23.5938 23.9375H9.375V9.875H23.5938V23.9375Z" fill="#FF641A"/>
<path d="M70.625 23.9375H56.4062V9.875H70.625V23.9375Z" fill="#F03800"/>
<path d="M32.9688 47.375H47.0312V61.4375H32.9688V47.375Z" fill="#FF641A"/>
<path d="M40 47.375H47.0312V61.4375H40V47.375Z" fill="#F03800"/>
<path d="M0 56.75H80V66.2812H0V56.75Z" fill="#F2F2FC"/>
<path d="M40 56.75H80V66.2812H40V56.75Z" fill="#D8D8FC"/>
</g>
<defs>
<clipPath id="clip0_34717_5910">
<rect width="80" height="80" fill="white" transform="translate(0 0.5)"/>
</clipPath>
</defs>
</svg>
